<?xml version="1.0" encoding="UTF-8"?>
<svg width="35px" height="30px" viewBox="0 0 30 30" version="1.1" xmlns="http://www.w3.org/2000/svg" xmlns:xlink="http://www.w3.org/1999/xlink">
    <!-- Generator: Sketch 53.2 (72643) - https://sketchapp.com -->
    <title>Group 11</title>
    <desc>Created with Sketch.</desc>
    <defs>
        <path d="M12.2863728,28.987 C5.31854591,27.8577001 4.97379915e-14,21.8412366 4.97379915e-14,14.5887097 C4.97379915e-14,6.5315878 6.56408327,-3.19744231e-14 14.6612903,-3.19744231e-14 C22.7584974,-3.19744231e-14 29.3225806,6.5315878 29.3225806,14.5887097 C29.3225806,22.5788889 22.8671197,29.0687786 14.8627969,29.1760696 C16.7942607,27.6495041 18.298321,26.2279801 19.3749778,24.9114978 C22.5281425,21.0559647 24.2261738,17.6478031 24.4749684,13.441132 C24.7237629,9.2344609 22.8349033,6.56343161 20.5137833,5.65633001 C18.9897414,5.06072924 16.7002008,5.08622074 13.6451613,5.73280452 L13.6451613,1.01612903 L4.20967742,11.25 L13.6451613,21.483871 L13.6451613,16.6870636 C15.9116037,15.7619579 17.3462426,15.7567518 17.9490782,16.6714451 C18.9323581,18.1633934 17.5628123,22.5996043 14.7380002,26.0359537 C13.9709758,26.9690294 13.1537667,27.9527116 12.2863728,28.987 Z" id="path-1"></path>
    </defs>
    <g id="Page-1" stroke="none" stroke-width="1" fill="none" fill-rule="evenodd">
        <g id="Desktop" transform="translate(-32.000000, -33.000000)">
            <g id="Group-11" transform="translate(32.000000, 32.000000)">
                <g id="Group-Copy-10" transform="translate(0.000000, 1.000000)">
                    <mask id="mask-2" fill="white">
                        <use xlink:href="#path-1"></use>
                    </mask>
                    <use id="Combined-Shape" fill="#FFFFFF" xlink:href="#path-1"></use>
                </g>
            </g>
        </g>
    </g>
</svg>